<svg xmlns="http://www.w3.org/2000/svg" xmlns:xlink="http://www.w3.org/1999/xlink" width="500" zoomAndPan="magnify" viewBox="0 0 375 374.999991" height="500" preserveAspectRatio="xMidYMid meet" version="1.0"><path fill="#391010" d="M 189.773438 56.285156 C 186.378906 57.730469 183.339844 60.546875 181.847656 63.625 C 181.039062 65.300781 179.609375 67.023438 178.675781 67.449219 C 176.066406 68.644531 175.09375 71.4375 176.109375 74.824219 C 176.757812 76.992188 177.925781 78.304688 181.113281 80.449219 C 183.398438 81.992188 186.128906 83.25 187.183594 83.25 C 188.238281 83.25 189.808594 83.628906 190.679688 84.09375 C 191.972656 84.789062 192.441406 84.6875 193.28125 83.539062 C 194.929688 81.285156 194.226562 79.089844 191.9375 79.320312 C 189.351562 79.582031 186.851562 76.945312 187.980469 75.144531 C 188.417969 74.445312 189.839844 73.769531 191.136719 73.640625 C 193.351562 73.417969 193.5 73.21875 193.5 70.414062 C 193.5 65.105469 197.265625 60.351562 202.96875 58.46875 C 205.3125 57.695312 205.527344 57.449219 204.417969 56.828125 C 202.503906 55.757812 191.929688 55.367188 189.773438 56.285156 M 217.542969 60.210938 C 216.539062 61.8125 216.503906 61.816406 215.964844 60.363281 C 215.464844 59.023438 215.359375 59 214.886719 60.15625 C 214.496094 61.109375 213.808594 61.324219 212.183594 61 C 210.09375 60.582031 210 60.679688 210 63.28125 C 210 64.777344 210.335938 66 210.75 66 C 211.164062 66 211.5 65.144531 211.5 64.097656 C 211.5 62.402344 211.667969 62.289062 213.070312 63.039062 C 215.378906 64.273438 218.144531 63.3125 218.703125 61.078125 C 219.335938 58.566406 218.8125 58.175781 217.542969 60.210938 M 203.75 64.25 C 203.476562 64.523438 203.25 65.394531 203.25 66.183594 C 203.25 67.386719 202.886719 67.539062 201 67.125 C 199.148438 66.71875 198.832031 66.839844 199.207031 67.816406 C 199.457031 68.464844 199.285156 69 198.832031 69 C 197.257812 69 198.003906 70.472656 199.804688 70.925781 C 202.570312 71.617188 204.75 70.085938 204.75 67.449219 C 204.75 65.398438 204.890625 65.273438 206.3125 66.035156 C 208.390625 67.144531 209.15625 66.277344 207.320312 64.890625 C 205.738281 63.695312 204.523438 63.476562 203.75 64.25 M 216.351562 70.875 C 216.15625 71.492188 215.828125 72.539062 215.621094 73.199219 C 215.410156 73.859375 216.085938 75.402344 217.121094 76.632812 C 219.496094 79.457031 219.511719 82.058594 217.160156 84.410156 C 215.632812 85.9375 214.578125 86.253906 210.972656 86.261719 C 207.890625 86.269531 206.953125 86.484375 207.75 87 C 208.367188 87.398438 210.472656 87.730469 212.425781 87.738281 C 219.347656 87.761719 223.210938 81.359375 218.988281 76.863281 C 217.261719 75.027344 217.257812 74.96875 218.675781 73.882812 C 219.859375 72.980469 219.933594 72.652344 219.089844 72.097656 C 218.523438 71.722656 218.289062 71.042969 218.574219 70.585938 C 218.867188 70.105469 218.578125 69.75 217.894531 69.75 C 217.238281 69.75 216.542969 70.257812 216.351562 70.875 M 207.984375 96.902344 C 207.910156 104.132812 206.601562 112.5 204.8125 117.203125 C 204.246094 118.703125 203.519531 119.25 202.097656 119.25 C 201 119.25 200.363281 119.574219 200.625 120 C 200.878906 120.414062 200.789062 120.75 200.417969 120.75 C 199.449219 120.75 199.835938 123.988281 200.847656 124.324219 C 202.105469 124.742188 199.554688 130.957031 195.359375 137.691406 C 189.363281 147.308594 183.304688 154.957031 174.164062 164.441406 C 169.332031 169.457031 166.726562 172.511719 168.375 171.230469 C 178.625 163.257812 195.636719 142.21875 201.457031 130.3125 C 203.238281 126.660156 203.871094 126 205.570312 126 C 207.222656 126 207.636719 125.605469 207.90625 123.777344 C 208.085938 122.550781 207.804688 121.121094 207.273438 120.589844 C 206.496094 119.804688 206.601562 118.566406 207.839844 114 C 209.464844 108.015625 209.988281 94.234375 208.722656 90.902344 C 208.273438 89.726562 208.042969 91.613281 207.984375 96.902344 M 253.507812 101.035156 C 252.183594 102.71875 251.988281 103.679688 252.378906 106.527344 C 252.828125 109.785156 252.484375 110.703125 246.410156 122.621094 C 239.160156 136.84375 238.894531 137.25 236.824219 137.25 C 234.46875 137.25 227.261719 133.085938 219.742188 127.375 C 214.773438 123.601562 212.597656 122.351562 212.011719 122.9375 C 210.992188 123.957031 210.429688 123.457031 223.421875 133.050781 C 234.050781 140.902344 236.285156 142.132812 239.003906 141.628906 C 240.53125 141.347656 243.214844 136.296875 250.054688 120.835938 C 254.160156 111.550781 254.738281 110.65625 257.929688 108.609375 C 260.769531 106.789062 261.902344 106.476562 264.375 106.824219 C 267.007812 107.195312 267.214844 107.121094 266.0625 106.230469 C 264.355469 104.902344 264.40625 104.410156 266.28125 104.113281 C 267.121094 103.984375 267.761719 103.539062 267.703125 103.125 C 267.59375 102.335938 267.507812 102.335938 265.125 103.15625 C 264.074219 103.515625 264.300781 103.101562 265.875 101.777344 C 269.234375 98.949219 267.550781 98.4375 264.039062 101.21875 L 261.007812 103.621094 L 260.3125 101.785156 C 259.726562 100.246094 257.710938 99.050781 255.617188 99.011719 C 255.335938 99.003906 254.386719 99.917969 253.507812 101.035156 M 255.070312 101.539062 C 254.015625 102.8125 255.914062 104.632812 257.617188 103.980469 C 259.164062 103.386719 259.039062 102.207031 257.328125 101.292969 C 256.292969 100.738281 255.679688 100.804688 255.070312 101.539062 M 180.375 123.695312 C 160.886719 128.832031 153 132.066406 153 134.925781 C 153 136.441406 154.234375 137.070312 163.34375 140.1875 C 166.746094 141.351562 169.203125 142.628906 169.332031 143.296875 C 169.449219 143.921875 168.519531 145.191406 167.261719 146.125 C 165.148438 147.683594 164.84375 147.726562 163.320312 146.65625 C 160.777344 144.878906 160.035156 145.285156 162 147.375 C 163.601562 149.082031 163.636719 149.25 162.355469 149.25 C 160.726562 149.25 161.6875 150.460938 163.636719 150.863281 C 164.664062 151.078125 164.246094 152.089844 161.355469 156.378906 C 155.8125 164.617188 153.371094 175.085938 155.894531 179.800781 C 156.363281 180.683594 156.75 182.773438 156.75 184.449219 C 156.75 186.128906 157.046875 187.5 157.40625 187.5 C 157.765625 187.5 157.886719 190.539062 157.675781 194.25 C 157.339844 200.160156 157.445312 201 158.519531 201 C 159.195312 201 159.773438 200.410156 159.804688 199.6875 C 159.925781 196.824219 160.597656 194.578125 161.648438 193.53125 C 162.617188 192.5625 162.75 193.125 162.75 198.214844 C 162.75 201.570312 163.066406 204 163.5 204 C 164.410156 204 164.449219 203.597656 164.261719 196.601562 C 164.164062 192.996094 164.375 191.238281 164.875 191.546875 C 165.296875 191.808594 165.851562 191.367188 166.105469 190.566406 C 166.445312 189.496094 165.691406 188.230469 163.28125 185.820312 C 158.445312 180.988281 157.820312 176.304688 160.855469 167.707031 C 165.007812 155.9375 178.628906 140.738281 194.40625 130.269531 C 197.585938 128.160156 200.050781 126.300781 199.886719 126.136719 C 199.359375 125.609375 185.074219 134.449219 178.6875 139.253906 C 170.917969 145.101562 171.070312 145.011719 171.488281 143.425781 C 171.75 142.414062 170.503906 141.339844 166.257812 138.921875 C 163.191406 137.179688 160.34375 135.75 159.929688 135.75 C 159.519531 135.75 158.765625 135.25 158.257812 134.632812 C 157.476562 133.691406 157.898438 133.277344 160.957031 131.964844 C 165.105469 130.1875 182.980469 124.59375 191.0625 122.546875 C 194.054688 121.789062 196.5 120.90625 196.5 120.585938 C 196.5 119.597656 194.355469 120.011719 180.375 123.695312 M 207.261719 129 C 207.496094 129.617188 208.863281 132.992188 210.300781 136.5 C 214.300781 146.238281 215.53125 157.023438 213.664062 165.902344 C 212.179688 172.953125 207.253906 182.160156 202.449219 186.859375 C 196.726562 192.457031 191.550781 194.492188 183.96875 194.117188 C 178.589844 193.851562 178.574219 193.855469 179.9375 195.363281 C 180.695312 196.195312 181.691406 197.613281 182.15625 198.511719 C 183.363281 200.859375 183.195312 213.464844 181.875 219.75 C 180.601562 225.808594 181.179688 228 184.058594 228 C 187.125 228 187.738281 226.398438 186.851562 220.710938 C 185.605469 212.714844 185.140625 203.835938 185.839844 201.375 C 186.246094 199.929688 187.039062 199.042969 188.046875 198.894531 C 190.078125 198.59375 190.714844 200.570312 190.382812 206.101562 C 190.164062 209.667969 190.335938 210.382812 191.441406 210.601562 C 192.605469 210.832031 192.746094 210.222656 192.671875 205.242188 C 192.578125 198.964844 192.90625 198 195.128906 198 C 196.585938 198 196.65625 198.355469 196.398438 204.546875 C 196.148438 210.503906 196.253906 211.117188 197.554688 211.375 C 198.898438 211.640625 198.953125 211.28125 198.492188 205.253906 C 197.988281 198.691406 198.910156 193.578125 200.214844 195.695312 C 200.5625 196.253906 200.730469 197.59375 200.59375 198.667969 C 200.457031 199.742188 200.527344 201.261719 200.753906 202.035156 C 201.550781 204.78125 202.53125 201.53125 202.082031 197.625 C 201.660156 193.929688 201.707031 193.816406 205.425781 189.945312 C 210.039062 185.144531 214.84375 175.554688 216.46875 167.898438 C 218.398438 158.808594 216.742188 147.253906 212.039062 137.050781 C 210.296875 133.269531 206.398438 126.699219 207.261719 129 M 202.222656 144.371094 C 201.453125 153.035156 200.535156 160.875 200.183594 161.792969 C 199.195312 164.394531 190.175781 177.957031 188.382812 179.539062 C 186.554688 181.15625 186.585938 181.199219 184.871094 174.957031 C 184.328125 172.988281 183.855469 172.058594 183.816406 172.898438 C 183.777344 173.738281 184.210938 176.203125 184.773438 178.375 L 185.800781 182.328125 L 183.308594 184.226562 C 180.175781 186.617188 174.273438 188.429688 171.566406 187.835938 C 168.679688 187.199219 168.988281 188.113281 172.101562 189.414062 C 175.78125 190.953125 180.296875 190.761719 183.917969 188.914062 L 187.023438 187.328125 L 189.058594 189.820312 C 190.898438 192.078125 191.273438 192.230469 192.988281 191.449219 C 196.660156 189.773438 200.996094 179.773438 202.566406 169.347656 C 203.023438 166.335938 204.074219 161.007812 204.902344 157.5 C 206.507812 150.726562 207.667969 134.25 206.542969 134.253906 C 206.175781 134.253906 205.847656 136.53125 205.8125 139.316406 C 205.777344 142.097656 205.4375 146.0625 205.0625 148.125 C 204.472656 151.339844 204.320312 150.21875 204 140.25 L 203.625 128.625 Z M 196.878906 175.289062 C 196.148438 176.4375 194.195312 179.160156 192.535156 181.34375 C 190.429688 184.113281 189.753906 185.554688 190.304688 186.101562 C 192.273438 188.074219 196.046875 183.382812 197.894531 176.667969 C 198.90625 173 198.597656 172.582031 196.878906 175.289062 M 77.25 254.625 L 77.25 268.5 L 84.402344 268.5 C 89.59375 268.5 92.039062 268.183594 93.324219 267.339844 C 97.078125 264.878906 97.664062 258.746094 94.476562 255.351562 L 92.976562 253.753906 L 94.488281 252.386719 C 95.554688 251.421875 96 250.074219 96 247.824219 C 96 245.183594 95.601562 244.300781 93.691406 242.691406 C 91.566406 240.902344 90.828125 240.75 84.316406 240.75 L 77.25 240.75 Z M 113.070312 241.921875 C 109.714844 243.746094 108.75 246.578125 108.75 254.625 C 108.75 259.59375 109.101562 262.507812 109.886719 264.023438 C 113.03125 270.101562 124.019531 270.007812 127.1875 263.878906 C 128.71875 260.921875 128.949219 249.492188 127.546875 246.109375 C 125.589844 241.386719 118.070312 239.210938 113.070312 241.921875 M 141.75 254.625 L 141.75 268.5 L 143.625 268.5 C 145.765625 268.5 145.699219 268.851562 145.511719 258.5625 C 145.441406 254.539062 145.660156 251.257812 146.003906 251.265625 C 146.34375 251.273438 148.046875 254.335938 149.789062 258.074219 C 152.234375 263.332031 153.253906 264.8125 154.289062 264.621094 C 155.128906 264.46875 156.929688 261.726562 159.132812 257.25 L 162.640625 250.125 L 162.75 268.5 L 166.5 268.5 L 166.5 240.75 L 164.605469 240.75 C 163.335938 240.75 162.496094 241.304688 162.058594 242.4375 C 161.699219 243.367188 159.808594 247.5 157.859375 251.625 L 154.3125 259.125 L 149.929688 249.9375 C 146.027344 241.761719 145.335938 240.75 143.648438 240.75 L 141.75 240.75 Z M 180.75 254.691406 L 180.75 268.636719 L 188.605469 268.378906 C 197.835938 268.078125 199.414062 267.144531 200.039062 261.613281 C 200.351562 258.832031 200.101562 257.9375 198.460938 255.988281 C 196.703125 253.902344 196.628906 253.574219 197.710938 252.679688 C 199.710938 251.015625 200.378906 248.289062 199.460938 245.503906 C 198.238281 241.804688 195.59375 240.75 187.539062 240.75 L 180.75 240.75 Z M 216.25 242.296875 C 214.941406 243.136719 213.507812 244.867188 213.0625 246.148438 C 212.011719 249.160156 212.015625 260.097656 213.066406 263.117188 C 215.394531 269.796875 227.609375 270.292969 231.085938 263.851562 C 232.566406 261.113281 232.34375 248.414062 230.765625 245.449219 C 228.289062 240.800781 221.039062 239.226562 216.25 242.296875 M 245.582031 241.714844 C 245.378906 242.246094 245.304688 248.40625 245.417969 255.402344 L 245.625 268.125 L 254.492188 268.335938 C 263.347656 268.546875 263.359375 268.546875 263.117188 266.835938 C 262.890625 265.230469 262.5 265.117188 256.875 264.980469 C 253.574219 264.898438 250.453125 264.816406 249.9375 264.792969 C 249.226562 264.761719 249 261.828125 249 252.75 C 249 241.1875 248.945312 240.75 247.476562 240.75 C 246.636719 240.75 245.785156 241.183594 245.582031 241.714844 M 274.675781 243.316406 L 271.875 245.882812 L 271.621094 253.371094 C 271.324219 261.988281 272.316406 265.078125 276.089844 267.308594 C 278.765625 268.890625 283.34375 269.027344 286.230469 267.609375 C 289.613281 265.953125 290.863281 263.382812 291.277344 257.25 C 292.074219 245.429688 289.332031 240.75 281.601562 240.75 C 277.953125 240.75 277.15625 241.046875 274.675781 243.316406 M 81 248.25 L 81 252.75 L 84.957031 252.75 C 89.839844 252.75 92.25 251.261719 92.25 248.25 C 92.25 245.238281 89.839844 243.75 84.957031 243.75 L 81 243.75 Z M 116.316406 244.566406 C 115.324219 244.964844 114.070312 245.871094 113.53125 246.582031 C 112.191406 248.34375 112.1875 260.902344 113.523438 262.660156 C 115.046875 264.664062 118.183594 265.582031 120.5 264.703125 C 123.875 263.417969 124.449219 261.929688 124.476562 254.4375 C 124.496094 248.480469 124.289062 247.289062 123 246 C 122.175781 245.175781 121.191406 244.5 120.8125 244.5 C 120.433594 244.5 119.671875 244.351562 119.125 244.171875 C 118.574219 243.992188 117.3125 244.167969 116.316406 244.566406 M 184.5 248.25 L 184.5 252.75 L 188.882812 252.75 C 193.8125 252.75 195.75 251.421875 195.75 248.046875 C 195.75 245.253906 193.199219 243.75 188.457031 243.75 L 184.5 243.75 Z M 220.703125 244.332031 C 217.308594 244.875 215.996094 247.839844 216.023438 254.914062 C 216.050781 261.917969 216.671875 263.4375 220.035156 264.714844 C 222.988281 265.839844 227.019531 264.019531 227.75 261.238281 C 228.597656 258.011719 228.367188 248.828125 227.394531 247.015625 C 226.425781 245.210938 223.226562 243.929688 220.703125 244.332031 M 279.269531 244.492188 C 276.214844 245.726562 275.25 248.160156 275.25 254.625 C 275.25 261.222656 276.21875 263.550781 279.488281 264.792969 C 282.410156 265.902344 286.269531 263.917969 287.128906 260.867188 C 288.023438 257.691406 287.699219 248.988281 286.613281 246.960938 C 286 245.816406 281.625 243.371094 280.949219 243.796875 C 280.910156 243.824219 280.152344 244.136719 279.269531 244.492188 M 81 260.164062 L 81 264.75 L 85.820312 264.75 C 91.085938 264.75 93 263.675781 93 260.714844 C 93 257.398438 91.296875 256.230469 85.964844 255.890625 L 81 255.574219 Z M 184.5 260.25 L 184.5 264.75 L 189.320312 264.75 C 194.65625 264.75 196.5 263.675781 196.5 260.570312 C 196.5 257.324219 194.054688 255.75 189 255.75 L 184.5 255.75 Z M 184.5 260.25 " fill-opacity="1" fill-rule="evenodd"/></svg>